<?xml version="1.0" encoding="UTF-8"?>
<svg width="40" height="40" version="1.1" viewBox="0 0 37.5 37.5" xmlns="http://www.w3.org/2000/svg" xmlns:cc="http://creativecommons.org/ns#" xmlns:dc="http://purl.org/dc/elements/1.1/" xmlns:rdf="http://www.w3.org/1999/02/22-rdf-syntax-ns#" xmlns:xlink="http://www.w3.org/1999/xlink"><defs><linearGradient id="main"><stop stop-color="#fff" stop-opacity="0" offset="0"/><stop stop-color="#fff" offset=".23169"/><stop stop-color="#fff" offset="1"/></linearGradient><linearGradient id="linearGradient1299" x1="-584.2" x2="-414.39" y1="782.34" y2="880.38" gradientTransform="translate(864.7 -1491.3)" gradientUnits="userSpaceOnUse" xlink:href="#main"/><linearGradient id="linearGradient1713" x1="200.6" x2="389.58" y1="351.41" y2="460.52" gradientTransform="translate(210.82 -765.28)" gradientUnits="userSpaceOnUse" xlink:href="#main"/></defs><metadata><rdf:RDF><cc:Work rdf:about=""><dc:format>image/svg+xml</dc:format><dc:type rdf:resource="http://purl.org/dc/dcmitype/StillImage"/></cc:Work></rdf:RDF></metadata><g transform="translate(-156.48 537.56)"><g transform="matrix(.0062597 0 0 .0062597 156.91 -528.02)" stroke-width="11.051"><g transform="matrix(11.048 0 0 11.048 -1572.3 9377.7)" stroke-width="11.051"><g transform="rotate(-60 226.36 -449.37)"><path id="path3336-6" d="m449.72-420.51 122.2 211.68-56.157 0.5268-32.624-56.869-32.856 56.565-27.902-0.011-14.291-24.69 46.81-80.49-33.229-57.826z" fill="url(#linearGradient1713)" fill-rule="evenodd"/></g><path id="path4260-0" d="m309.55-710.39 122.2 211.68-56.157 0.5268-32.624-56.869-32.856 56.565-27.902-0.011-14.291-24.69 46.81-80.49-33.229-57.826z" color="#000000" color-rendering="auto" fill="url(#linearGradient1299)" fill-rule="evenodd" image-rendering="auto" shape-rendering="auto" solid-color="#000000" style="isolation:auto;mix-blend-mode:normal"/><use transform="rotate(60 728.24 -692.24)" width="100%" height="100%" xlink:href="#path3336-6"/><use transform="rotate(180 477.5 -570.82)" width="100%" height="100%" xlink:href="#path3336-6"/><use transform="rotate(120 407.34 -716.08)" width="100%" height="100%" xlink:href="#path4260-0"/><use transform="rotate(240 407.29 -715.87)" width="100%" height="100%" xlink:href="#path4260-0"/></g></g></g></svg>
