<?xml version="1.0" encoding="UTF-8"?>
<svg width="16" height="16" version="1.1" viewBox="0 0 37.5 37.5" xmlns="http://www.w3.org/2000/svg" xmlns:cc="http://creativecommons.org/ns#" xmlns:dc="http://purl.org/dc/elements/1.1/" xmlns:rdf="http://www.w3.org/1999/02/22-rdf-syntax-ns#" xmlns:xlink="http://www.w3.org/1999/xlink"><defs><linearGradient id="linearGradient4328" x1="200.6" x2="290.09" y1="351.41" y2="506.19" gradientTransform="matrix(.8835 0 0 .8835 98.537 -991.96)" gradientUnits="userSpaceOnUse"><stop stop-color="#699ad7" offset="0"/><stop stop-color="#7eb1dd" offset=".24345"/><stop stop-color="#7ebae4" offset="1"/></linearGradient><linearGradient id="linearGradient4330" x1="-584.2" x2="-496.3" y1="782.34" y2="937.71" gradientTransform="matrix(.8835 0 0 .8835 800.08 -1377.3)" gradientUnits="userSpaceOnUse"><stop stop-color="#415e9a" offset="0"/><stop stop-color="#4a6baf" offset=".23169"/><stop stop-color="#5277c3" offset="1"/></linearGradient></defs><metadata><rdf:RDF><cc:Work rdf:about=""><dc:format>image/svg+xml</dc:format><dc:type rdf:resource="http://purl.org/dc/dcmitype/StillImage"/></cc:Work></rdf:RDF></metadata><g transform="matrix(.078272 0 0 .078272 -12.237 72.918)" fill-rule="evenodd" shape-rendering="auto"><path d="m309.48-687.24 107.96 187.02-49.615 0.46544-28.823-50.244-29.029 49.976-24.652-9e-3 -12.626-21.813 41.357-71.113-29.358-51.089z" color="#000000" color-rendering="auto" fill="#5277c3" image-rendering="auto" solid-color="#000000" style="isolation:auto;mix-blend-mode:normal"/><g fill="#7ebae4"><path d="m348.44-764.27-107.98 187.01-25.211-42.735 29.101-50.084-57.795-0.15187-12.317-21.354 12.578-21.841 82.265 0.25966 29.565-50.97z" color="#000000" color-rendering="auto" image-rendering="auto" solid-color="#000000" style="isolation:auto;mix-blend-mode:normal"/><path d="m356.73-614.78 215.94 0.0107-24.404 43.2-57.924-0.16053 28.766 50.127-12.335 21.344-25.204 0.0283-40.907-71.373-58.924-0.11954z" color="#000000" color-rendering="auto" image-rendering="auto" solid-color="#000000" style="isolation:auto;mix-blend-mode:normal"/><path d="m482.41-696.72-107.96-187.02 49.615-0.46543 28.823 50.244 29.029-49.976 24.652 9e-3 12.626 21.813-41.357 71.113 29.358 51.089z" color="#000000" color-rendering="auto" image-rendering="auto" solid-color="#000000" style="isolation:auto;mix-blend-mode:normal"/></g><g fill="#5277c3"><path d="m309.48-687.24 107.96 187.02-49.615 0.46544-28.823-50.244-29.029 49.976-24.652-9e-3 -12.626-21.813 41.357-71.113-29.358-51.089z" color="#000000" color-rendering="auto" image-rendering="auto" solid-color="#000000" style="isolation:auto;mix-blend-mode:normal"/><path d="m434.87-769.65-215.94-0.0107 24.404-43.201 57.924 0.16057-28.766-50.127 12.335-21.344 25.204-0.0279 40.907 71.373 58.924 0.11949z" color="#000000" color-rendering="auto" image-rendering="auto" solid-color="#000000" style="isolation:auto;mix-blend-mode:normal"/><path d="m443.3-619.73 107.98-187.01 25.211 42.735-29.101 50.084 57.795 0.15179 12.317 21.354-12.578 21.841-82.265-0.25975-29.565 50.97z" color="#000000" color-rendering="auto" image-rendering="auto" solid-color="#000000" style="isolation:auto;mix-blend-mode:normal"/></g></g><g transform="matrix(.078272 0 0 .078272 -12.237 72.918)"><path id="path3336-6" d="m309.6-687.36 107.96 187.02-49.615 0.46542-28.823-50.244-29.029 49.976-24.652-9e-3 -12.626-21.813 41.357-71.113-29.358-51.089z" fill="url(#linearGradient4328)" fill-rule="evenodd"/><use transform="rotate(60 395.8 -692.13)" width="100%" height="100%" xlink:href="#path3336-6"/><use transform="rotate(-60 395.98 -692.05)" width="100%" height="100%" xlink:href="#path3336-6"/><use transform="rotate(180 396.07 -692.1)" width="100%" height="100%" xlink:href="#path3336-6"/><path id="path4260-0" d="m309.6-687.36 107.96 187.02-49.615 0.46542-28.823-50.244-29.029 49.976-24.652-9e-3 -12.626-21.813 41.357-71.113-29.358-51.089z" color="#000000" color-rendering="auto" fill="url(#linearGradient4330)" fill-rule="evenodd" image-rendering="auto" shape-rendering="auto" solid-color="#000000" style="isolation:auto;mix-blend-mode:normal"/><use transform="rotate(120 396 -692.39)" width="100%" height="100%" xlink:href="#path4260-0"/><use transform="rotate(240 395.96 -692.2)" width="100%" height="100%" xlink:href="#path4260-0"/></g></svg>
